<svg version="1.0" xmlns="http://www.w3.org/2000/svg" width="169.333" height="169.333" viewBox="0 0 127 127"><path d="M66 1.1c0 .4 6.4 5.2 14.3 10.6C88.1 17.1 97 23.2 100 25.3c13.9 9.7 23.2 15.8 23.5 15.5.9-.9-5.6-11.8-10.5-17.6C106.1 15 96.1 8.1 86.1 4.6 78.2 1.9 66-.2 66 1.1zM50 2.5C28.6 7.8 11.8 23.8 4.4 46c-2 5.8-2.6 25.1-1.1 31.6 6 26.2 28.9 46.5 55.3 49l6.4.6V1l-4.7.1c-2.7 0-7.3.7-10.3 1.4zm20.4 91.7l.1 32.3 4-.3c6-.6 14.6-3.5 22.2-7.7 7.4-4.2 18.4-14.7 22-21.1l2.1-3.9-23.9-15.3c-13.1-8.4-24.5-15.5-25.3-15.8-1.2-.5-1.4 4.2-1.2 31.8z"/></svg>