<?xml version="1.0" encoding="UTF-8" standalone="no"?>
<svg
   xmlns:dc="http://purl.org/dc/elements/1.1/"
   xmlns:cc="http://creativecommons.org/ns#"
   xmlns:rdf="http://www.w3.org/1999/02/22-rdf-syntax-ns#"
   xmlns:svg="http://www.w3.org/2000/svg"
   xmlns="http://www.w3.org/2000/svg"
   xmlns:sodipodi="http://sodipodi.sourceforge.net/DTD/sodipodi-0.dtd"
   xmlns:inkscape="http://www.inkscape.org/namespaces/inkscape"
   inkscape:version="1.0 (5b275a35d9, 2020-05-03)"
   sodipodi:docname="logo.svg"
   viewBox="0 0 810.90243 149.09586"
   height="149.09586"
   width="810.9024"
   xml:space="preserve"
   id="svg28"
   version="1.1"><metadata
     id="metadata34"><rdf:RDF><cc:Work
         rdf:about=""><dc:format>image/svg+xml</dc:format><dc:type
           rdf:resource="http://purl.org/dc/dcmitype/StillImage" /><dc:title></dc:title></cc:Work></rdf:RDF></metadata><defs
     id="defs32"><clipPath
       id="clipPath46"
       clipPathUnits="userSpaceOnUse"><path
         id="path44"
         d="M 0,768 H 1024 V 0 H 0 Z" /></clipPath></defs><sodipodi:namedview
     inkscape:current-layer="g36"
     inkscape:window-maximized="1"
     inkscape:window-y="30"
     inkscape:window-x="0"
     inkscape:cy="314.76084"
     inkscape:cx="414.75009"
     inkscape:zoom="0.60839844"
     fit-margin-bottom="0"
     fit-margin-right="0"
     fit-margin-left="0"
     fit-margin-top="0"
     showgrid="false"
     id="namedview30"
     inkscape:window-height="1017"
     inkscape:window-width="1920"
     inkscape:pageshadow="2"
     inkscape:pageopacity="0"
     guidetolerance="10"
     gridtolerance="10"
     objecttolerance="10"
     borderopacity="1"
     bordercolor="#666666"
     pagecolor="#ffffff" /><g
     transform="matrix(1.3333333,0,0,-1.3333333,0,1024)"
     inkscape:label="loonar"
     inkscape:groupmode="layer"
     id="g36"><g
       transform="translate(-207.9119,328.08932)"
       id="g40"><g
         clip-path="url(#clipPath46)"
         id="g42"><g
           transform="translate(209.9059,437.9167)"
           id="g48"><path
             id="path50"
             style="fill:#333333;fill-opacity:1;fill-rule:nonzero;stroke:none"
             d="m 0,0 c -1.424,-1.424 -1.994,-3.134 -1.994,-5.128 v -77.777 c 0,-5.128 0.854,-9.686 2.706,-13.675 1.71,-3.989 4.274,-7.122 7.55,-9.402 3.276,-2.279 6.98,-3.276 11.111,-3.276 h 0.285 c 2.849,0 5.128,0.57 6.98,1.994 1.709,1.282 2.706,2.992 2.706,5.129 0,1.994 -0.712,3.703 -1.851,5.128 -1.14,1.282 -2.707,1.994 -4.559,1.994 h -3.561 c -2.137,0 -3.846,1.139 -5.128,3.419 -1.425,2.279 -1.994,5.128 -1.994,8.689 v 77.777 c 0,1.994 -0.713,3.704 -1.995,5.128 C 8.832,1.282 7.123,1.994 5.128,1.994 2.992,1.994 1.282,1.282 0,0 Z" /></g><g
           transform="translate(432.1254,393.4728)"
           id="g52"><path
             id="path54"
             style="fill:#333333;fill-opacity:1;fill-rule:nonzero;stroke:none"
             d="m 0,0 c 7.122,0 13.248,-2.564 18.376,-7.55 4.986,-5.128 7.55,-11.253 7.55,-18.376 0,-7.122 -2.564,-13.247 -7.55,-18.233 -5.128,-5.128 -11.254,-7.55 -18.376,-7.55 -7.122,0 -13.248,2.422 -18.233,7.55 -5.129,4.986 -7.55,11.111 -7.55,18.233 0,7.123 2.421,13.248 7.55,18.376 C -13.248,-2.564 -7.122,0 0,0 m 0,-65.384 c 10.969,0 20.228,3.846 27.92,11.539 7.692,7.692 11.681,16.951 11.681,27.919 0,10.969 -3.989,20.228 -11.681,27.92 C 20.228,9.686 10.969,13.675 0,13.675 c -10.969,0 -20.228,-3.989 -27.92,-11.681 -7.692,-7.692 -11.538,-16.951 -11.538,-27.92 0,-10.968 3.846,-20.227 11.538,-27.919 7.692,-7.693 16.951,-11.539 27.92,-11.539" /></g><g
           transform="translate(585.2855,328.2314)"
           id="g56"><path
             id="path58"
             style="fill:#333333;fill-opacity:1;fill-rule:nonzero;stroke:none"
             d="m 0,0 c 1.994,0 3.704,0.712 5.128,2.137 1.424,1.424 1.994,3.134 1.994,5.128 v 36.609 c 0,9.971 -3.561,18.518 -10.541,25.641 -7.122,7.122 -15.812,10.683 -25.783,10.683 -10.114,0 -18.661,-3.561 -25.783,-10.683 -7.122,-7.123 -10.684,-15.67 -10.684,-25.641 V 7.265 c 0,-1.994 0.713,-3.704 2.137,-5.128 1.424,-1.425 3.134,-1.995 4.986,-1.995 1.994,0 3.703,0.57 5.128,1.995 1.424,1.424 1.994,3.134 1.994,5.128 v 36.609 c 0,5.983 2.279,11.254 6.553,15.527 4.273,4.416 9.544,6.553 15.669,6.553 6.125,0 11.253,-2.137 15.669,-6.553 4.274,-4.273 6.411,-9.544 6.411,-15.527 V 7.122 c 0,-1.851 0.712,-3.561 2.136,-4.985 C -3.561,0.712 -1.852,0 0,0" /></g><g
           transform="translate(678.17,341.7641)"
           id="g60"><path
             id="path62"
             style="fill:#333333;fill-opacity:1;fill-rule:nonzero;stroke:none"
             d="m 0,0 c -7.122,0 -13.248,2.422 -18.233,7.55 -5.129,4.985 -7.55,11.111 -7.55,18.233 0,7.123 2.421,13.248 7.55,18.234 4.985,5.128 11.111,7.692 18.233,7.692 7.122,0 13.248,-2.564 18.233,-7.692 5.129,-4.986 7.693,-11.111 7.693,-18.234 0,-7.122 -2.564,-13.248 -7.693,-18.233 C 13.248,2.422 7.122,0 0,0 M 27.92,53.703 C 20.228,61.395 10.969,65.384 0,65.384 c -10.826,0 -20.228,-3.989 -27.92,-11.681 -7.692,-7.692 -11.538,-16.951 -11.538,-27.92 0,-10.968 3.846,-20.228 11.538,-27.92 7.692,-7.692 17.094,-11.538 27.92,-11.538 9.829,0 18.518,3.134 25.926,9.544 v -2.707 c 0,-1.994 0.569,-3.561 1.994,-4.843 1.282,-1.424 2.849,-1.994 4.843,-1.994 1.852,0 3.419,0.57 4.843,1.994 1.282,1.282 1.995,2.849 1.995,4.843 v 32.621 c 0,10.969 -3.846,20.228 -11.681,27.92" /></g><g
           transform="translate(809.2507,408.7148)"
           id="g64"><path
             id="path66"
             style="fill:#333333;fill-opacity:1;fill-rule:nonzero;stroke:none"
             d="m 0,0 c -11.966,0 -22.079,-4.273 -30.626,-12.678 -8.405,-8.404 -12.536,-18.518 -12.536,-30.484 v -30.057 c 0,-1.994 0.57,-3.561 1.994,-4.843 1.283,-1.424 2.849,-1.994 4.844,-1.994 1.851,0 3.419,0.57 4.7,1.994 1.425,1.282 2.137,2.849 2.137,4.843 v 30.057 c 0,8.12 2.849,15.1 8.547,20.798 5.841,5.84 12.82,8.689 20.94,8.689 1.852,0 3.419,0.712 4.843,1.994 1.282,1.425 1.995,2.992 1.995,4.843 0,1.852 -0.713,3.562 -1.995,4.844 C 3.419,-0.712 1.852,0 0,0" /></g><g
           transform="translate(310.6679,393.4728)"
           id="g68"><path
             id="path70"
             style="fill:#333333;fill-opacity:1;fill-rule:nonzero;stroke:none"
             d="m 0,0 c 7.122,0 13.248,-2.564 18.376,-7.55 4.986,-5.128 7.55,-11.253 7.55,-18.376 0,-7.122 -2.564,-13.247 -7.55,-18.233 -5.128,-5.128 -11.254,-7.55 -18.376,-7.55 -7.122,0 -13.248,2.422 -18.233,7.55 -5.129,4.986 -7.55,11.111 -7.55,18.233 0,7.123 2.421,13.248 7.55,18.376 C -13.248,-2.564 -7.122,0 0,0 m 0,-65.384 c 10.969,0 20.228,3.846 27.92,11.539 7.692,7.692 11.681,16.951 11.681,27.919 0,10.969 -3.989,20.228 -11.681,27.92 C 20.228,9.686 10.969,13.675 0,13.675 c -10.969,0 -20.228,-3.989 -27.92,-11.681 -7.692,-7.692 -11.538,-16.951 -11.538,-27.92 0,-10.968 3.846,-20.227 11.538,-27.919 7.692,-7.693 16.951,-11.539 27.92,-11.539" /></g><g
           transform="translate(306.1133,384.0637)"
           id="g72"><path
             id="path74"
             style="fill:#333333;fill-opacity:1;fill-rule:nonzero;stroke:none"
             d="m 0,0 c 0,-1.306 -1.059,-2.365 -2.365,-2.365 -1.307,0 -2.365,1.059 -2.365,2.365 0,1.306 1.058,2.365 2.365,2.365 C -1.059,2.365 0,1.306 0,0" /></g><g
           transform="translate(311.5275,370.6183)"
           id="g76"><path
             id="path78"
             style="fill:#333333;fill-opacity:1;fill-rule:nonzero;stroke:none"
             d="m 0,0 c 0,-1.306 -1.059,-2.365 -2.365,-2.365 -1.307,0 -2.365,1.059 -2.365,2.365 0,1.306 1.058,2.365 2.365,2.365 C -1.059,2.365 0,1.306 0,0" /></g><g
           transform="translate(330.2969,369.8964)"
           id="g80"><path
             id="path82"
             style="fill:#333333;fill-opacity:1;fill-rule:nonzero;stroke:none"
             d="m 0,0 c 0,-1.306 -1.059,-2.365 -2.365,-2.365 -1.307,0 -2.365,1.059 -2.365,2.365 0,1.306 1.058,2.365 2.365,2.365 C -1.059,2.365 0,1.306 0,0" /></g><g
           transform="translate(325.5143,362.0457)"
           id="g84"><path
             id="path86"
             style="fill:#333333;fill-opacity:1;fill-rule:nonzero;stroke:none"
             d="m 0,0 c 0,-1.306 -1.059,-2.365 -2.365,-2.365 -1.307,0 -2.365,1.059 -2.365,2.365 0,1.306 1.058,2.365 2.365,2.365 C -1.059,2.365 0,1.306 0,0" /></g><g
           transform="translate(327.8605,377.9275)"
           id="g88"><path
             id="path90"
             style="fill:#333333;fill-opacity:1;fill-rule:nonzero;stroke:none"
             d="m 0,0 c 0,-2.353 -1.907,-4.26 -4.26,-4.26 -2.353,0 -4.26,1.907 -4.26,4.26 0,2.353 1.907,4.26 4.26,4.26 C -1.907,4.26 0,2.353 0,0" /></g><g
           transform="translate(319.4684,384.6051)"
           id="g92"><path
             id="path94"
             style="fill:#333333;fill-opacity:1;fill-rule:nonzero;stroke:none"
             d="m 0,0 c 0,-0.708 -0.574,-1.282 -1.282,-1.282 -0.709,0 -1.283,0.574 -1.283,1.282 0,0.708 0.574,1.282 1.283,1.282 C -0.574,1.282 0,0.708 0,0" /></g><g
           transform="translate(313.5128,377.9275)"
           id="g96"><path
             id="path98"
             style="fill:#333333;fill-opacity:1;fill-rule:nonzero;stroke:none"
             d="m 0,0 c 0,-0.708 -0.574,-1.282 -1.282,-1.282 -0.709,0 -1.283,0.574 -1.283,1.282 0,0.708 0.574,1.282 1.283,1.282 C -0.574,1.282 0,0.708 0,0" /></g><g
           transform="translate(319.288,363.3993)"
           id="g100"><path
             id="path102"
             style="fill:#333333;fill-opacity:1;fill-rule:nonzero;stroke:none"
             d="m 0,0 c 0,-0.708 -0.574,-1.282 -1.282,-1.282 -0.709,0 -1.283,0.574 -1.283,1.282 0,0.708 0.574,1.282 1.283,1.282 C -0.574,1.282 0,0.708 0,0" /></g></g></g></g></svg>
